<svg xmlns="http://www.w3.org/2000/svg" xmlns:xlink="http://www.w3.org/1999/xlink" width="500" zoomAndPan="magnify" viewBox="0 0 375 374.999991" height="500" preserveAspectRatio="xMidYMid meet" version="1.0"><defs><g/><clipPath id="ef1d9975be"><path d="M 63.820312 63.082031 L 311.917969 63.082031 L 311.917969 311.179688 L 63.820312 311.179688 Z M 63.820312 63.082031 " clip-rule="nonzero"/></clipPath><clipPath id="48bb39d150"><path d="M 187.867188 63.082031 C 119.359375 63.082031 63.820312 118.621094 63.820312 187.132812 C 63.820312 255.640625 119.359375 311.179688 187.867188 311.179688 C 256.378906 311.179688 311.917969 255.640625 311.917969 187.132812 C 311.917969 118.621094 256.378906 63.082031 187.867188 63.082031 Z M 187.867188 63.082031 " clip-rule="nonzero"/></clipPath><clipPath id="033a6d4302"><path d="M 63.082031 63.082031 L 312 63.082031 L 312 312 L 63.082031 312 Z M 63.082031 63.082031 " clip-rule="nonzero"/></clipPath><clipPath id="8ef19dd14e"><path d="M 102.25 245.714844 L 130.75 245.714844 L 130.75 274.214844 L 102.25 274.214844 Z M 102.25 245.714844 " clip-rule="nonzero"/></clipPath><clipPath id="cb925e46fd"><path d="M 248.085938 245.714844 L 276.585938 245.714844 L 276.585938 274.214844 L 248.085938 274.214844 Z M 248.085938 245.714844 " clip-rule="nonzero"/></clipPath></defs><g clip-path="url(#ef1d9975be)"><g clip-path="url(#48bb39d150)"><path fill="#004aad" d="M 63.820312 63.082031 L 311.917969 63.082031 L 311.917969 311.179688 L 63.820312 311.179688 Z M 63.820312 63.082031 " fill-opacity="1" fill-rule="nonzero"/></g></g><g clip-path="url(#033a6d4302)"><path fill="#5271ff" d="M 187.496094 311.90625 C 118.914062 311.90625 63.082031 256.074219 63.082031 187.496094 C 63.082031 118.914062 118.914062 63.082031 187.496094 63.082031 C 256.074219 63.082031 311.90625 118.914062 311.90625 187.496094 C 311.90625 256.074219 256.074219 311.90625 187.496094 311.90625 Z M 187.496094 64.921875 C 119.898438 64.921875 64.921875 119.898438 64.921875 187.496094 C 64.921875 255.09375 119.898438 310.070312 187.496094 310.070312 C 255.09375 310.070312 310.070312 255.09375 310.070312 187.496094 C 310.070312 119.898438 255.09375 64.921875 187.496094 64.921875 Z M 187.496094 64.921875 " fill-opacity="1" fill-rule="nonzero"/></g><g clip-path="url(#8ef19dd14e)"><path fill="#ffbd59" d="M 116.632812 245.714844 C 115.230469 257.5625 114.09375 258.699219 102.25 260.097656 C 102.273438 260.101562 102.296875 260.105469 102.324219 260.109375 C 114.101562 261.507812 115.234375 262.664062 116.632812 274.484375 C 118.035156 262.636719 119.171875 261.5 131.019531 260.097656 C 119.171875 258.699219 118.035156 257.5625 116.632812 245.714844 Z M 116.632812 245.714844 " fill-opacity="1" fill-rule="nonzero"/></g><g clip-path="url(#cb925e46fd)"><path fill="#ffbd59" d="M 262.46875 245.714844 C 261.070312 257.5625 259.933594 258.699219 248.085938 260.097656 C 248.109375 260.101562 248.132812 260.105469 248.160156 260.109375 C 259.9375 261.507812 261.070312 262.664062 262.46875 274.484375 C 263.871094 262.636719 265.007812 261.5 276.855469 260.097656 C 265.007812 258.699219 263.871094 257.5625 262.46875 245.714844 Z M 262.46875 245.714844 " fill-opacity="1" fill-rule="nonzero"/></g><g fill="#ff914d" fill-opacity="1"><g transform="translate(100.561418, 241.322576)"><g><path d="M -1.8125 -3.734375 C -1.507812 -3.171875 -1.3125 -2.550781 -1.21875 -1.875 C -1.125 -1.207031 -1.160156 -0.539062 -1.328125 0.125 L -3.28125 -0.25 C -3.175781 -0.707031 -3.140625 -1.164062 -3.171875 -1.625 C -3.210938 -2.082031 -3.332031 -2.492188 -3.53125 -2.859375 C -3.75 -3.265625 -3.984375 -3.523438 -4.234375 -3.640625 C -4.492188 -3.765625 -4.75 -3.753906 -5 -3.609375 C -5.125 -3.535156 -5.222656 -3.441406 -5.296875 -3.328125 C -5.367188 -3.222656 -5.410156 -3.09375 -5.421875 -2.9375 C -5.441406 -2.789062 -5.441406 -2.625 -5.421875 -2.4375 C -5.398438 -2.25 -5.378906 -2.039062 -5.359375 -1.8125 L -5.21875 -0.4375 C -5.195312 -0.15625 -5.195312 0.125 -5.21875 0.40625 C -5.25 0.6875 -5.3125 0.957031 -5.40625 1.21875 C -5.507812 1.476562 -5.660156 1.722656 -5.859375 1.953125 C -6.054688 2.191406 -6.3125 2.394531 -6.625 2.5625 C -6.976562 2.757812 -7.351562 2.867188 -7.75 2.890625 C -8.144531 2.910156 -8.53125 2.847656 -8.90625 2.703125 C -9.289062 2.554688 -9.644531 2.332031 -9.96875 2.03125 C -10.300781 1.726562 -10.59375 1.351562 -10.84375 0.90625 C -11.113281 0.40625 -11.285156 -0.140625 -11.359375 -0.734375 C -11.429688 -1.328125 -11.382812 -1.90625 -11.21875 -2.46875 L -9.46875 -2.15625 C -9.53125 -1.75 -9.546875 -1.375 -9.515625 -1.03125 C -9.484375 -0.6875 -9.375 -0.34375 -9.1875 0 C -9 0.332031 -8.785156 0.5625 -8.546875 0.6875 C -8.304688 0.8125 -8.0625 0.804688 -7.8125 0.671875 C -7.675781 0.597656 -7.578125 0.5 -7.515625 0.375 C -7.453125 0.257812 -7.414062 0.125 -7.40625 -0.03125 C -7.40625 -0.1875 -7.414062 -0.359375 -7.4375 -0.546875 C -7.457031 -0.734375 -7.476562 -0.953125 -7.5 -1.203125 L -7.640625 -2.53125 C -7.722656 -3.175781 -7.664062 -3.75 -7.46875 -4.25 C -7.269531 -4.757812 -6.863281 -5.179688 -6.25 -5.515625 C -5.894531 -5.710938 -5.515625 -5.820312 -5.109375 -5.84375 C -4.710938 -5.875 -4.316406 -5.816406 -3.921875 -5.671875 C -3.535156 -5.523438 -3.15625 -5.289062 -2.78125 -4.96875 C -2.414062 -4.65625 -2.09375 -4.242188 -1.8125 -3.734375 Z M -1.8125 -3.734375 "/></g></g></g><g fill="#ff914d" fill-opacity="1"><g transform="translate(92.707069, 225.109994)"><g><path d="M -5.78125 -1.734375 L -4.84375 -1.78125 L -5.5 -3.765625 L -6.28125 -3.265625 C -6.707031 -2.972656 -7.15625 -2.679688 -7.625 -2.390625 C -8.101562 -2.097656 -8.570312 -1.8125 -9.03125 -1.53125 L -9 -1.46875 C -8.476562 -1.519531 -7.9375 -1.566406 -7.375 -1.609375 C -6.820312 -1.660156 -6.289062 -1.703125 -5.78125 -1.734375 Z M 0.03125 0.09375 L -10.21875 0.25 L -11.0625 -2.28125 L -2.71875 -8.25 L -1.984375 -6.03125 L -4.015625 -4.734375 L -3.078125 -1.890625 L -0.671875 -2.046875 Z M 0.03125 0.09375 "/></g></g></g><g fill="#ff914d" fill-opacity="1"><g transform="translate(87.889718, 207.409908)"><g><path d="M -0.171875 -1.140625 L -9.828125 0.375 L -10.171875 -1.796875 L -0.515625 -3.3125 Z M -0.171875 -1.140625 "/></g></g></g><g fill="#ff914d" fill-opacity="1"><g transform="translate(86.281464, 193.234017)"><g><path d="M 0.015625 -1.15625 L -9.765625 -1.28125 L -9.734375 -4.046875 C -9.722656 -4.796875 -9.617188 -5.46875 -9.421875 -6.0625 C -9.222656 -6.65625 -8.925781 -7.160156 -8.53125 -7.578125 C -8.132812 -8.003906 -7.625 -8.328125 -7 -8.546875 C -6.382812 -8.773438 -5.660156 -8.882812 -4.828125 -8.875 C -3.984375 -8.863281 -3.253906 -8.738281 -2.640625 -8.5 C -2.023438 -8.257812 -1.515625 -7.925781 -1.109375 -7.5 C -0.710938 -7.082031 -0.414062 -6.578125 -0.21875 -5.984375 C -0.03125 -5.398438 0.0546875 -4.75 0.046875 -4.03125 Z M -1.734375 -3.375 L -1.734375 -3.796875 C -1.734375 -4.210938 -1.785156 -4.59375 -1.890625 -4.9375 C -1.992188 -5.289062 -2.164062 -5.585938 -2.40625 -5.828125 C -2.644531 -6.066406 -2.960938 -6.253906 -3.359375 -6.390625 C -3.765625 -6.535156 -4.265625 -6.613281 -4.859375 -6.625 C -5.441406 -6.625 -5.925781 -6.554688 -6.3125 -6.421875 C -6.707031 -6.296875 -7.023438 -6.113281 -7.265625 -5.875 C -7.503906 -5.644531 -7.675781 -5.359375 -7.78125 -5.015625 C -7.894531 -4.671875 -7.953125 -4.289062 -7.953125 -3.875 L -7.953125 -3.453125 Z M -1.734375 -3.375 "/></g></g></g><g fill="#ff914d" fill-opacity="1"><g transform="translate(87.538728, 174.025156)"><g><path d="M 0.203125 -1.140625 L -9.421875 -2.890625 L -9.03125 -5.0625 L 0.59375 -3.3125 Z M 0.203125 -1.140625 "/></g></g></g><g fill="#ff914d" fill-opacity="1"><g transform="translate(90.683136, 160.103669)"><g><path d="M 0.390625 -1.09375 L -8.8125 -4.40625 L -8.0625 -6.46875 L -4.296875 -5.109375 L -4.28125 -5.171875 L -7.0625 -9.265625 L -6.234375 -11.5625 L -3.5625 -7.453125 L 3.140625 -8.75 L 2.328125 -6.484375 L -2.359375 -5.625 L -1.328125 -4.046875 L 1.140625 -3.15625 Z M 0.390625 -1.09375 "/></g></g></g><g fill="#ff914d" fill-opacity="1"><g transform="translate(97.928952, 142.686028)"><g><path d="M -2.515625 -5.484375 L -1.859375 -4.8125 L -0.8125 -6.609375 L -1.703125 -6.859375 C -2.203125 -6.992188 -2.71875 -7.144531 -3.25 -7.3125 C -3.789062 -7.476562 -4.3125 -7.632812 -4.8125 -7.78125 L -4.84375 -7.734375 C -4.457031 -7.367188 -4.0625 -6.992188 -3.65625 -6.609375 C -3.257812 -6.222656 -2.878906 -5.847656 -2.515625 -5.484375 Z M -0.046875 0.078125 L -6.9375 -7.515625 L -5.59375 -9.8125 L 4.390625 -7.5 L 3.203125 -5.46875 L 0.890625 -6.125 L -0.609375 -3.5625 L 1.09375 -1.859375 Z M -0.046875 0.078125 "/></g></g></g><g fill="#ff914d" fill-opacity="1"><g transform="translate(108.054624, 127.349704)"><g/></g></g><g fill="#ff914d" fill-opacity="1"><g transform="translate(116.549772, 117.7986)"><g><path d="M 0.859375 -0.765625 L -5.625 -8.09375 L -3.546875 -9.921875 C -2.984375 -10.421875 -2.410156 -10.796875 -1.828125 -11.046875 C -1.253906 -11.296875 -0.679688 -11.414062 -0.109375 -11.40625 C 0.460938 -11.40625 1.035156 -11.25 1.609375 -10.9375 C 2.191406 -10.625 2.765625 -10.160156 3.328125 -9.546875 C 3.878906 -8.910156 4.273438 -8.285156 4.515625 -7.671875 C 4.753906 -7.054688 4.851562 -6.457031 4.8125 -5.875 C 4.769531 -5.289062 4.59375 -4.726562 4.28125 -4.1875 C 3.976562 -3.65625 3.554688 -3.148438 3.015625 -2.671875 Z M 1.328125 -3.5625 L 1.640625 -3.828125 C 1.953125 -4.109375 2.203125 -4.40625 2.390625 -4.71875 C 2.585938 -5.03125 2.691406 -5.351562 2.703125 -5.6875 C 2.710938 -6.03125 2.632812 -6.394531 2.46875 -6.78125 C 2.300781 -7.175781 2.023438 -7.597656 1.640625 -8.046875 C 1.242188 -8.484375 0.867188 -8.800781 0.515625 -9 C 0.160156 -9.207031 -0.179688 -9.316406 -0.515625 -9.328125 C -0.847656 -9.347656 -1.175781 -9.28125 -1.5 -9.125 C -1.832031 -8.976562 -2.15625 -8.765625 -2.46875 -8.484375 L -2.78125 -8.21875 Z M 1.328125 -3.5625 "/></g></g></g><g fill="#ff914d" fill-opacity="1"><g transform="translate(131.622745, 105.82152)"><g><path d="M 0.984375 -0.609375 L -4.1875 -8.90625 L -2.328125 -10.078125 L 2.84375 -1.78125 Z M 0.984375 -0.609375 "/></g></g></g><g fill="#ff914d" fill-opacity="1"><g transform="translate(144.035173, 98.795757)"><g><path d="M 5.140625 -1.90625 C 4.523438 -1.65625 3.90625 -1.519531 3.28125 -1.5 C 2.65625 -1.476562 2.0625 -1.578125 1.5 -1.796875 C 0.9375 -2.023438 0.425781 -2.378906 -0.03125 -2.859375 C -0.488281 -3.347656 -0.875 -3.972656 -1.1875 -4.734375 C -1.5 -5.484375 -1.660156 -6.195312 -1.671875 -6.875 C -1.679688 -7.5625 -1.566406 -8.1875 -1.328125 -8.75 C -1.085938 -9.320312 -0.742188 -9.820312 -0.296875 -10.25 C 0.140625 -10.6875 0.660156 -11.03125 1.265625 -11.28125 C 1.929688 -11.550781 2.546875 -11.664062 3.109375 -11.625 C 3.679688 -11.582031 4.175781 -11.46875 4.59375 -11.28125 L 4.0625 -9.53125 C 3.738281 -9.632812 3.421875 -9.703125 3.109375 -9.734375 C 2.796875 -9.773438 2.441406 -9.71875 2.046875 -9.5625 C 1.703125 -9.414062 1.410156 -9.210938 1.171875 -8.953125 C 0.941406 -8.703125 0.769531 -8.40625 0.65625 -8.0625 C 0.539062 -7.726562 0.5 -7.359375 0.53125 -6.953125 C 0.570312 -6.546875 0.6875 -6.113281 0.875 -5.65625 C 1.257812 -4.726562 1.765625 -4.09375 2.390625 -3.75 C 3.015625 -3.40625 3.757812 -3.410156 4.625 -3.765625 C 4.800781 -3.835938 4.960938 -3.929688 5.109375 -4.046875 C 5.265625 -4.171875 5.390625 -4.300781 5.484375 -4.4375 L 4.84375 -5.984375 L 3.328125 -5.375 L 2.640625 -7.046875 L 5.953125 -8.40625 L 7.671875 -4.234375 C 7.472656 -3.804688 7.160156 -3.375 6.734375 -2.9375 C 6.316406 -2.507812 5.785156 -2.164062 5.140625 -1.90625 Z M 5.140625 -1.90625 "/></g></g></g><g fill="#ff914d" fill-opacity="1"><g transform="translate(162.248542, 92.421412)"><g><path d="M 1.125 -0.25 L -1.03125 -9.796875 L 1.125 -10.28125 L 3.28125 -0.734375 Z M 1.125 -0.25 "/></g></g></g><g fill="#ff914d" fill-opacity="1"><g transform="translate(176.308669, 89.892803)"><g><path d="M 3.0625 -0.1875 L 2.578125 -8.09375 L -0.109375 -7.921875 L -0.21875 -9.78125 L 7.359375 -10.25 L 7.46875 -8.390625 L 4.78125 -8.234375 L 5.265625 -0.328125 Z M 3.0625 -0.1875 "/></g></g></g><g fill="#ff914d" fill-opacity="1"><g transform="translate(194.324201, 89.663725)"><g><path d="M 4.015625 -4.5 L 3.671875 -3.625 L 5.75 -3.375 L 5.625 -4.3125 C 5.550781 -4.8125 5.476562 -5.34375 5.40625 -5.90625 C 5.34375 -6.46875 5.28125 -7.003906 5.21875 -7.515625 L 5.15625 -7.53125 C 4.96875 -7.03125 4.78125 -6.515625 4.59375 -5.984375 C 4.40625 -5.460938 4.210938 -4.96875 4.015625 -4.5 Z M -0.09375 -0.015625 L 4.125 -9.34375 L 6.75 -9.03125 L 8.625 1.046875 L 6.296875 0.765625 L 5.984375 -1.625 L 3.03125 -1.984375 L 2.140625 0.265625 Z M -0.09375 -0.015625 "/></g></g></g><g fill="#ff914d" fill-opacity="1"><g transform="translate(212.343217, 92.750046)"><g><path d="M 1.109375 0.34375 L 3.984375 -9 L 6.078125 -8.359375 L 3.75 -0.796875 L 7.453125 0.34375 L 6.90625 2.125 Z M 1.109375 0.34375 "/></g></g></g><g fill="#ff914d" fill-opacity="1"><g transform="translate(228.839925, 98.799852)"><g/></g></g><g fill="#ff914d" fill-opacity="1"><g transform="translate(240.117458, 104.864954)"><g><path d="M 3.296875 2.515625 C 2.773438 2.148438 2.316406 1.6875 1.921875 1.125 C 1.535156 0.570312 1.273438 -0.0390625 1.140625 -0.71875 L 3.03125 -1.25 C 3.15625 -0.800781 3.332031 -0.378906 3.5625 0.015625 C 3.800781 0.421875 4.09375 0.742188 4.4375 0.984375 C 4.8125 1.242188 5.140625 1.363281 5.421875 1.34375 C 5.703125 1.320312 5.925781 1.191406 6.09375 0.953125 C 6.175781 0.835938 6.222656 0.71875 6.234375 0.59375 C 6.242188 0.476562 6.222656 0.347656 6.171875 0.203125 C 6.117188 0.0546875 6.039062 -0.09375 5.9375 -0.25 C 5.832031 -0.414062 5.722656 -0.597656 5.609375 -0.796875 L 4.84375 -1.953125 C 4.707031 -2.191406 4.585938 -2.441406 4.484375 -2.703125 C 4.390625 -2.972656 4.328125 -3.25 4.296875 -3.53125 C 4.265625 -3.8125 4.285156 -4.097656 4.359375 -4.390625 C 4.429688 -4.679688 4.566406 -4.972656 4.765625 -5.265625 C 5.003906 -5.597656 5.289062 -5.863281 5.625 -6.0625 C 5.957031 -6.257812 6.328125 -6.378906 6.734375 -6.421875 C 7.140625 -6.460938 7.554688 -6.421875 7.984375 -6.296875 C 8.421875 -6.179688 8.847656 -5.976562 9.265625 -5.6875 C 9.734375 -5.363281 10.132812 -4.953125 10.46875 -4.453125 C 10.800781 -3.953125 11.023438 -3.414062 11.140625 -2.84375 L 9.421875 -2.328125 C 9.304688 -2.722656 9.148438 -3.066406 8.953125 -3.359375 C 8.765625 -3.648438 8.507812 -3.90625 8.1875 -4.125 C 7.882812 -4.34375 7.59375 -4.453125 7.3125 -4.453125 C 7.039062 -4.453125 6.828125 -4.335938 6.671875 -4.109375 C 6.578125 -3.972656 6.53125 -3.84375 6.53125 -3.71875 C 6.539062 -3.59375 6.578125 -3.457031 6.640625 -3.3125 C 6.703125 -3.164062 6.785156 -3.007812 6.890625 -2.84375 C 6.992188 -2.6875 7.109375 -2.507812 7.234375 -2.3125 L 7.96875 -1.1875 C 8.332031 -0.644531 8.535156 -0.101562 8.578125 0.4375 C 8.628906 0.976562 8.453125 1.535156 8.046875 2.109375 C 7.816406 2.441406 7.53125 2.710938 7.1875 2.921875 C 6.851562 3.128906 6.472656 3.257812 6.046875 3.3125 C 5.628906 3.363281 5.1875 3.328125 4.71875 3.203125 C 4.25 3.078125 3.773438 2.847656 3.296875 2.515625 Z M 3.296875 2.515625 "/></g></g></g><g fill="#ff914d" fill-opacity="1"><g transform="translate(254.430503, 115.757719)"><g><path d="M 3.453125 3.78125 C 2.992188 3.3125 2.65625 2.796875 2.4375 2.234375 C 2.226562 1.679688 2.144531 1.113281 2.1875 0.53125 C 2.226562 -0.0507812 2.394531 -0.640625 2.6875 -1.234375 C 2.988281 -1.835938 3.425781 -2.421875 4 -2.984375 C 4.570312 -3.546875 5.15625 -3.96875 5.75 -4.25 C 6.351562 -4.53125 6.941406 -4.675781 7.515625 -4.6875 C 8.085938 -4.707031 8.644531 -4.601562 9.1875 -4.375 C 9.726562 -4.144531 10.226562 -3.796875 10.6875 -3.328125 C 11.15625 -2.847656 11.5 -2.332031 11.71875 -1.78125 C 11.945312 -1.238281 12.039062 -0.679688 12 -0.109375 C 11.96875 0.460938 11.804688 1.039062 11.515625 1.625 C 11.222656 2.21875 10.789062 2.789062 10.21875 3.34375 C 9.644531 3.90625 9.054688 4.332031 8.453125 4.625 C 7.859375 4.914062 7.269531 5.078125 6.6875 5.109375 C 6.101562 5.140625 5.535156 5.046875 4.984375 4.828125 C 4.429688 4.609375 3.921875 4.257812 3.453125 3.78125 Z M 4.8125 2.453125 C 5.289062 2.929688 5.875 3.109375 6.5625 2.984375 C 7.25 2.859375 7.941406 2.445312 8.640625 1.75 C 9.335938 1.070312 9.75 0.398438 9.875 -0.265625 C 10 -0.941406 9.820312 -1.519531 9.34375 -2 C 8.875 -2.476562 8.300781 -2.660156 7.625 -2.546875 C 6.957031 -2.429688 6.273438 -2.035156 5.578125 -1.359375 C 4.878906 -0.660156 4.457031 0.0234375 4.3125 0.703125 C 4.175781 1.390625 4.34375 1.972656 4.8125 2.453125 Z M 4.8125 2.453125 "/></g></g></g><g fill="#ff914d" fill-opacity="1"><g transform="translate(267.645225, 130.644356)"><g><path d="M 0.640625 0.953125 L 8.765625 -4.5 L 10 -2.65625 L 3.421875 1.765625 L 5.578125 4.984375 L 4.03125 6.015625 Z M 0.640625 0.953125 "/></g></g></g><g fill="#ff914d" fill-opacity="1"><g transform="translate(276.684627, 145.553712)"><g><path d="M 1.8125 4.6875 C 1.3125 3.519531 1.269531 2.476562 1.6875 1.5625 C 2.113281 0.644531 3.082031 -0.132812 4.59375 -0.78125 L 9.421875 -2.859375 L 10.296875 -0.8125 L 5.28125 1.34375 C 4.382812 1.726562 3.816406 2.128906 3.578125 2.546875 C 3.347656 2.960938 3.34375 3.425781 3.5625 3.9375 C 3.769531 4.4375 4.109375 4.75 4.578125 4.875 C 5.046875 5 5.726562 4.867188 6.625 4.484375 L 11.640625 2.328125 L 12.484375 4.28125 L 7.65625 6.359375 C 6.144531 7.003906 4.914062 7.175781 3.96875 6.875 C 3.019531 6.570312 2.300781 5.84375 1.8125 4.6875 Z M 1.8125 4.6875 "/></g></g></g><g fill="#ff914d" fill-opacity="1"><g transform="translate(283.510003, 163.94795)"><g><path d="M 0.65625 2.984375 L 8.390625 1.265625 L 7.8125 -1.359375 L 9.625 -1.75 L 11.265625 5.671875 L 9.453125 6.0625 L 8.875 3.4375 L 1.140625 5.15625 Z M 0.65625 2.984375 "/></g></g></g><g fill="#ff914d" fill-opacity="1"><g transform="translate(286.496725, 181.79399)"><g><path d="M 0.0625 1.15625 L 9.828125 0.609375 L 9.953125 2.8125 L 0.1875 3.359375 Z M 0.0625 1.15625 "/></g></g></g><g fill="#ff914d" fill-opacity="1"><g transform="translate(286.709567, 196.043784)"><g><path d="M -0.78125 5.078125 C -0.695312 4.421875 -0.503906 3.832031 -0.203125 3.3125 C 0.0976562 2.800781 0.484375 2.375 0.953125 2.03125 C 1.429688 1.6875 1.992188 1.445312 2.640625 1.3125 C 3.296875 1.175781 4.023438 1.15625 4.828125 1.25 C 5.617188 1.34375 6.3125 1.53125 6.90625 1.8125 C 7.507812 2.09375 8 2.453125 8.375 2.890625 C 8.75 3.328125 9.015625 3.828125 9.171875 4.390625 C 9.335938 4.960938 9.378906 5.578125 9.296875 6.234375 C 9.222656 6.890625 9.039062 7.472656 8.75 7.984375 C 8.46875 8.503906 8.09375 8.929688 7.625 9.265625 C 7.164062 9.609375 6.609375 9.847656 5.953125 9.984375 C 5.304688 10.128906 4.59375 10.15625 3.8125 10.0625 C 3.007812 9.96875 2.304688 9.773438 1.703125 9.484375 C 1.109375 9.203125 0.613281 8.84375 0.21875 8.40625 C -0.164062 7.976562 -0.445312 7.476562 -0.625 6.90625 C -0.800781 6.34375 -0.851562 5.734375 -0.78125 5.078125 Z M 1.109375 5.296875 C 1.035156 5.960938 1.265625 6.519531 1.796875 6.96875 C 2.328125 7.425781 3.082031 7.710938 4.0625 7.828125 C 5.03125 7.941406 5.8125 7.832031 6.40625 7.5 C 7.007812 7.175781 7.347656 6.679688 7.421875 6.015625 C 7.503906 5.347656 7.289062 4.789062 6.78125 4.34375 C 6.269531 3.894531 5.53125 3.613281 4.5625 3.5 C 3.582031 3.382812 2.78125 3.488281 2.15625 3.8125 C 1.539062 4.132812 1.191406 4.628906 1.109375 5.296875 Z M 1.109375 5.296875 "/></g></g></g><g fill="#ff914d" fill-opacity="1"><g transform="translate(283.48854, 215.645168)"><g><path d="M -0.359375 1.09375 L 8.953125 4.09375 L 8.265625 6.25 L 2.859375 7.203125 L 0.5 7.453125 L 0.484375 7.484375 C 0.992188 7.617188 1.5625 7.75 2.1875 7.875 C 2.8125 8 3.40625 8.148438 3.96875 8.328125 L 7.25 9.390625 L 6.609375 11.390625 L -2.703125 8.390625 L -2.015625 6.25 L 3.421875 5.3125 L 5.71875 5.046875 L 5.734375 4.984375 C 5.210938 4.867188 4.644531 4.742188 4.03125 4.609375 C 3.425781 4.484375 2.847656 4.332031 2.296875 4.15625 L -1 3.09375 Z M -0.359375 1.09375 "/></g></g></g><g fill="#ff914d" fill-opacity="1"><g transform="translate(276.544755, 233.99714)"><g><path d="M -2.15625 3.546875 C -1.851562 2.984375 -1.441406 2.476562 -0.921875 2.03125 C -0.398438 1.59375 0.179688 1.269531 0.828125 1.0625 L 1.5625 2.875 C 1.125 3.039062 0.71875 3.265625 0.34375 3.546875 C -0.0195312 3.828125 -0.300781 4.148438 -0.5 4.515625 C -0.71875 4.921875 -0.800781 5.257812 -0.75 5.53125 C -0.707031 5.8125 -0.5625 6.023438 -0.3125 6.171875 C -0.1875 6.242188 -0.0625 6.273438 0.0625 6.265625 C 0.1875 6.265625 0.316406 6.226562 0.453125 6.15625 C 0.597656 6.09375 0.742188 6 0.890625 5.875 C 1.035156 5.75 1.203125 5.625 1.390625 5.5 L 2.46875 4.625 C 2.675781 4.445312 2.90625 4.296875 3.15625 4.171875 C 3.414062 4.046875 3.679688 3.953125 3.953125 3.890625 C 4.234375 3.828125 4.523438 3.816406 4.828125 3.859375 C 5.128906 3.910156 5.4375 4.019531 5.75 4.1875 C 6.101562 4.382812 6.394531 4.640625 6.625 4.953125 C 6.851562 5.265625 7.007812 5.625 7.09375 6.03125 C 7.1875 6.4375 7.191406 6.859375 7.109375 7.296875 C 7.035156 7.734375 6.875 8.175781 6.625 8.625 C 6.351562 9.125 5.988281 9.566406 5.53125 9.953125 C 5.070312 10.335938 4.5625 10.613281 4 10.78125 L 3.3125 9.125 C 3.6875 8.96875 4.007812 8.78125 4.28125 8.5625 C 4.550781 8.34375 4.78125 8.0625 4.96875 7.71875 C 5.15625 7.382812 5.234375 7.082031 5.203125 6.8125 C 5.171875 6.539062 5.03125 6.335938 4.78125 6.203125 C 4.644531 6.128906 4.515625 6.097656 4.390625 6.109375 C 4.265625 6.128906 4.128906 6.175781 3.984375 6.25 C 3.847656 6.320312 3.707031 6.421875 3.5625 6.546875 C 3.414062 6.671875 3.25 6.804688 3.0625 6.953125 L 2.015625 7.8125 C 1.515625 8.226562 1 8.484375 0.46875 8.578125 C -0.0625 8.679688 -0.632812 8.566406 -1.25 8.234375 C -1.601562 8.035156 -1.898438 7.773438 -2.140625 7.453125 C -2.390625 7.140625 -2.554688 6.78125 -2.640625 6.375 C -2.734375 5.96875 -2.742188 5.519531 -2.671875 5.03125 C -2.609375 4.550781 -2.4375 4.054688 -2.15625 3.546875 Z M -2.15625 3.546875 "/></g></g></g><g fill="#0097b2" fill-opacity="1"><g transform="translate(133.797579, 216.094505)"><g><path d="M 26.3125 1.140625 C 22.238281 1.140625 18.1875 0.394531 14.15625 -1.09375 C 10.125 -2.59375 6.519531 -4.832031 3.34375 -7.8125 L 11.34375 -17.4375 C 13.5625 -15.53125 16.019531 -13.972656 18.71875 -12.765625 C 21.425781 -11.566406 24.082031 -10.96875 26.6875 -10.96875 C 29.613281 -10.96875 31.789062 -11.503906 33.21875 -12.578125 C 34.644531 -13.660156 35.359375 -15.125 35.359375 -16.96875 C 35.359375 -17.914062 35.148438 -18.738281 34.734375 -19.4375 C 34.328125 -20.144531 33.722656 -20.765625 32.921875 -21.296875 C 32.128906 -21.835938 31.175781 -22.347656 30.0625 -22.828125 C 28.957031 -23.304688 27.738281 -23.832031 26.40625 -24.40625 L 18.296875 -27.828125 C 16.710938 -28.460938 15.171875 -29.285156 13.671875 -30.296875 C 12.179688 -31.316406 10.847656 -32.507812 9.671875 -33.875 C 8.492188 -35.25 7.554688 -36.835938 6.859375 -38.640625 C 6.160156 -40.453125 5.8125 -42.503906 5.8125 -44.796875 C 5.8125 -47.335938 6.351562 -49.734375 7.4375 -51.984375 C 8.519531 -54.242188 10.046875 -56.210938 12.015625 -57.890625 C 13.984375 -59.578125 16.316406 -60.894531 19.015625 -61.84375 C 21.710938 -62.800781 24.679688 -63.28125 27.921875 -63.28125 C 31.546875 -63.28125 35.117188 -62.582031 38.640625 -61.1875 C 42.171875 -59.789062 45.269531 -57.757812 47.9375 -55.09375 L 40.796875 -46.234375 C 38.765625 -47.816406 36.726562 -49.035156 34.6875 -49.890625 C 32.65625 -50.753906 30.398438 -51.1875 27.921875 -51.1875 C 25.515625 -51.1875 23.59375 -50.691406 22.15625 -49.703125 C 20.726562 -48.722656 20.015625 -47.34375 20.015625 -45.5625 C 20.015625 -44.601562 20.253906 -43.789062 20.734375 -43.125 C 21.210938 -42.457031 21.878906 -41.851562 22.734375 -41.3125 C 23.585938 -40.78125 24.585938 -40.273438 25.734375 -39.796875 C 26.878906 -39.316406 28.117188 -38.789062 29.453125 -38.21875 L 37.453125 -34.984375 C 41.265625 -33.453125 44.265625 -31.351562 46.453125 -28.6875 C 48.648438 -26.019531 49.75 -22.492188 49.75 -18.109375 C 49.75 -15.503906 49.222656 -13.039062 48.171875 -10.71875 C 47.128906 -8.40625 45.609375 -6.375 43.609375 -4.625 C 41.609375 -2.875 39.144531 -1.472656 36.21875 -0.421875 C 33.289062 0.617188 29.988281 1.140625 26.3125 1.140625 Z M 26.3125 1.140625 "/></g></g></g><g fill="#ffbd59" fill-opacity="1"><g transform="translate(167.709867, 216.627139)"><g><path d="M 7.03125 0 L 7.03125 -59.546875 L 23.84375 -59.546875 C 28.40625 -59.546875 32.507812 -58.96875 36.15625 -57.8125 C 39.8125 -56.65625 42.945312 -54.875 45.5625 -52.46875 C 48.1875 -50.0625 50.195312 -47 51.59375 -43.28125 C 53 -39.570312 53.703125 -35.160156 53.703125 -30.046875 C 53.703125 -24.929688 53 -20.484375 51.59375 -16.703125 C 50.195312 -12.929688 48.21875 -9.8125 45.65625 -7.34375 C 43.101562 -4.882812 40.046875 -3.046875 36.484375 -1.828125 C 32.921875 -0.609375 28.945312 0 24.5625 0 Z M 20.453125 -10.875 L 23.015625 -10.875 C 25.566406 -10.875 27.878906 -11.207031 29.953125 -11.875 C 32.023438 -12.539062 33.789062 -13.617188 35.25 -15.109375 C 36.707031 -16.609375 37.847656 -18.570312 38.671875 -21 C 39.492188 -23.4375 39.90625 -26.453125 39.90625 -30.046875 C 39.90625 -33.578125 39.492188 -36.546875 38.671875 -38.953125 C 37.847656 -41.359375 36.707031 -43.273438 35.25 -44.703125 C 33.789062 -46.128906 32.023438 -47.144531 29.953125 -47.75 C 27.878906 -48.363281 25.566406 -48.671875 23.015625 -48.671875 L 20.453125 -48.671875 Z M 20.453125 -10.875 "/></g></g></g><g fill="#ff914d" fill-opacity="1"><g transform="translate(200.439648, 217.123499)"><g><path d="M 25.359375 1.109375 C 21.441406 1.109375 17.535156 0.390625 13.640625 -1.046875 C 9.753906 -2.492188 6.28125 -4.65625 3.21875 -7.53125 L 10.9375 -16.8125 C 13.082031 -14.976562 15.457031 -13.476562 18.0625 -12.3125 C 20.664062 -11.144531 23.222656 -10.5625 25.734375 -10.5625 C 28.546875 -10.5625 30.640625 -11.082031 32.015625 -12.125 C 33.398438 -13.164062 34.09375 -14.578125 34.09375 -16.359375 C 34.09375 -17.273438 33.890625 -18.066406 33.484375 -18.734375 C 33.085938 -19.410156 32.503906 -20.007812 31.734375 -20.53125 C 30.972656 -21.050781 30.054688 -21.539062 28.984375 -22 C 27.921875 -22.46875 26.742188 -22.976562 25.453125 -23.53125 L 17.640625 -26.828125 C 16.109375 -27.441406 14.625 -28.238281 13.1875 -29.21875 C 11.75 -30.195312 10.460938 -31.34375 9.328125 -32.65625 C 8.191406 -33.976562 7.285156 -35.507812 6.609375 -37.25 C 5.941406 -39 5.609375 -40.976562 5.609375 -43.1875 C 5.609375 -45.632812 6.128906 -47.945312 7.171875 -50.125 C 8.210938 -52.300781 9.679688 -54.203125 11.578125 -55.828125 C 13.472656 -57.453125 15.722656 -58.722656 18.328125 -59.640625 C 20.929688 -60.554688 23.796875 -61.015625 26.921875 -61.015625 C 30.410156 -61.015625 33.851562 -60.335938 37.25 -58.984375 C 40.65625 -57.640625 43.644531 -55.679688 46.21875 -53.109375 L 39.328125 -44.5625 C 37.367188 -46.09375 35.40625 -47.269531 33.4375 -48.09375 C 31.476562 -48.925781 29.304688 -49.34375 26.921875 -49.34375 C 24.597656 -49.34375 22.742188 -48.867188 21.359375 -47.921875 C 19.984375 -46.972656 19.296875 -45.640625 19.296875 -43.921875 C 19.296875 -43.003906 19.523438 -42.222656 19.984375 -41.578125 C 20.441406 -40.929688 21.082031 -40.347656 21.90625 -39.828125 C 22.738281 -39.304688 23.707031 -38.816406 24.8125 -38.359375 C 25.914062 -37.898438 27.109375 -37.394531 28.390625 -36.84375 L 36.109375 -33.71875 C 39.785156 -32.25 42.679688 -30.226562 44.796875 -27.65625 C 46.910156 -25.082031 47.96875 -21.679688 47.96875 -17.453125 C 47.96875 -14.941406 47.460938 -12.566406 46.453125 -10.328125 C 45.441406 -8.097656 43.96875 -6.140625 42.03125 -4.453125 C 40.101562 -2.773438 37.726562 -1.425781 34.90625 -0.40625 C 32.09375 0.601562 28.910156 1.109375 25.359375 1.109375 Z M 25.359375 1.109375 "/></g></g></g><g fill="#ff914d" fill-opacity="1"><g transform="translate(161.695727, 294.824731)"><g><path d="M 4.03125 0.953125 C 3.40625 0.835938 2.800781 0.601562 2.21875 0.25 C 1.644531 -0.101562 1.15625 -0.5625 0.75 -1.125 L 2.25 -2.375 C 2.539062 -2.007812 2.875 -1.691406 3.25 -1.421875 C 3.632812 -1.160156 4.03125 -0.988281 4.4375 -0.90625 C 4.894531 -0.820312 5.25 -0.84375 5.5 -0.96875 C 5.75 -1.101562 5.90625 -1.3125 5.96875 -1.59375 C 5.988281 -1.738281 5.976562 -1.867188 5.9375 -1.984375 C 5.894531 -2.109375 5.820312 -2.222656 5.71875 -2.328125 C 5.613281 -2.441406 5.476562 -2.550781 5.3125 -2.65625 C 5.15625 -2.757812 4.976562 -2.878906 4.78125 -3.015625 L 3.640625 -3.765625 C 3.410156 -3.910156 3.191406 -4.082031 2.984375 -4.28125 C 2.785156 -4.488281 2.617188 -4.710938 2.484375 -4.953125 C 2.347656 -5.203125 2.25 -5.476562 2.1875 -5.78125 C 2.132812 -6.082031 2.140625 -6.40625 2.203125 -6.75 C 2.273438 -7.15625 2.425781 -7.515625 2.65625 -7.828125 C 2.882812 -8.140625 3.175781 -8.398438 3.53125 -8.609375 C 3.882812 -8.816406 4.285156 -8.953125 4.734375 -9.015625 C 5.179688 -9.078125 5.65625 -9.0625 6.15625 -8.96875 C 6.71875 -8.863281 7.25 -8.648438 7.75 -8.328125 C 8.257812 -8.015625 8.679688 -7.613281 9.015625 -7.125 L 7.65625 -5.96875 C 7.375 -6.28125 7.09375 -6.53125 6.8125 -6.71875 C 6.53125 -6.90625 6.191406 -7.035156 5.796875 -7.109375 C 5.429688 -7.179688 5.125 -7.160156 4.875 -7.046875 C 4.632812 -6.941406 4.488281 -6.75 4.4375 -6.46875 C 4.40625 -6.3125 4.410156 -6.175781 4.453125 -6.0625 C 4.503906 -5.945312 4.585938 -5.832031 4.703125 -5.71875 C 4.828125 -5.613281 4.96875 -5.507812 5.125 -5.40625 C 5.289062 -5.300781 5.472656 -5.179688 5.671875 -5.046875 L 6.8125 -4.3125 C 7.363281 -3.96875 7.765625 -3.5625 8.015625 -3.09375 C 8.273438 -2.625 8.34375 -2.046875 8.21875 -1.359375 C 8.132812 -0.960938 7.976562 -0.597656 7.75 -0.265625 C 7.519531 0.0664062 7.226562 0.335938 6.875 0.546875 C 6.519531 0.753906 6.097656 0.898438 5.609375 0.984375 C 5.128906 1.066406 4.601562 1.054688 4.03125 0.953125 Z M 4.03125 0.953125 "/></g></g></g><g fill="#ff914d" fill-opacity="1"><g transform="translate(181.51114, 297.469464)"><g><path d="M 1.15625 0 L 1.15625 -9.78125 L 3.921875 -9.78125 C 4.671875 -9.78125 5.34375 -9.679688 5.9375 -9.484375 C 6.539062 -9.296875 7.054688 -9.003906 7.484375 -8.609375 C 7.910156 -8.222656 8.238281 -7.722656 8.46875 -7.109375 C 8.695312 -6.492188 8.8125 -5.769531 8.8125 -4.9375 C 8.8125 -4.09375 8.695312 -3.359375 8.46875 -2.734375 C 8.238281 -2.117188 7.914062 -1.609375 7.5 -1.203125 C 7.082031 -0.796875 6.578125 -0.492188 5.984375 -0.296875 C 5.398438 -0.0976562 4.75 0 4.03125 0 Z M 3.359375 -1.78125 L 3.78125 -1.78125 C 4.195312 -1.78125 4.578125 -1.832031 4.921875 -1.9375 C 5.265625 -2.050781 5.554688 -2.226562 5.796875 -2.46875 C 6.035156 -2.71875 6.222656 -3.039062 6.359375 -3.4375 C 6.492188 -3.84375 6.5625 -4.34375 6.5625 -4.9375 C 6.5625 -5.519531 6.492188 -6.003906 6.359375 -6.390625 C 6.222656 -6.785156 6.035156 -7.097656 5.796875 -7.328125 C 5.554688 -7.566406 5.265625 -7.738281 4.921875 -7.84375 C 4.578125 -7.945312 4.195312 -8 3.78125 -8 L 3.359375 -8 Z M 3.359375 -1.78125 "/></g></g></g><g fill="#ff914d" fill-opacity="1"><g transform="translate(201.99852, 296.364134)"><g><path d="M 4.09375 -0.578125 C 3.46875 -0.460938 2.820312 -0.460938 2.15625 -0.578125 C 1.5 -0.691406 0.875 -0.9375 0.28125 -1.3125 L 1.25 -3.03125 C 1.644531 -2.789062 2.066406 -2.613281 2.515625 -2.5 C 2.972656 -2.394531 3.40625 -2.382812 3.8125 -2.46875 C 4.269531 -2.550781 4.59375 -2.695312 4.78125 -2.90625 C 4.96875 -3.125 5.03125 -3.375 4.96875 -3.65625 C 4.945312 -3.800781 4.894531 -3.914062 4.8125 -4 C 4.726562 -4.09375 4.617188 -4.171875 4.484375 -4.234375 C 4.347656 -4.304688 4.179688 -4.363281 3.984375 -4.40625 C 3.796875 -4.445312 3.59375 -4.492188 3.375 -4.546875 L 2.015625 -4.828125 C 1.742188 -4.890625 1.476562 -4.972656 1.21875 -5.078125 C 0.96875 -5.191406 0.734375 -5.335938 0.515625 -5.515625 C 0.296875 -5.703125 0.109375 -5.925781 -0.046875 -6.1875 C -0.210938 -6.445312 -0.328125 -6.75 -0.390625 -7.09375 C -0.460938 -7.5 -0.453125 -7.890625 -0.359375 -8.265625 C -0.265625 -8.640625 -0.0859375 -8.988281 0.171875 -9.3125 C 0.429688 -9.632812 0.753906 -9.90625 1.140625 -10.125 C 1.523438 -10.34375 1.96875 -10.5 2.46875 -10.59375 C 3.03125 -10.695312 3.601562 -10.691406 4.1875 -10.578125 C 4.78125 -10.472656 5.328125 -10.25 5.828125 -9.90625 L 4.96875 -8.34375 C 4.601562 -8.53125 4.253906 -8.660156 3.921875 -8.734375 C 3.585938 -8.804688 3.222656 -8.804688 2.828125 -8.734375 C 2.460938 -8.660156 2.179688 -8.523438 1.984375 -8.328125 C 1.796875 -8.140625 1.726562 -7.90625 1.78125 -7.625 C 1.8125 -7.46875 1.867188 -7.347656 1.953125 -7.265625 C 2.046875 -7.179688 2.164062 -7.109375 2.3125 -7.046875 C 2.46875 -6.992188 2.632812 -6.945312 2.8125 -6.90625 C 3 -6.863281 3.210938 -6.816406 3.453125 -6.765625 L 4.78125 -6.5 C 5.414062 -6.363281 5.9375 -6.125 6.34375 -5.78125 C 6.757812 -5.4375 7.03125 -4.921875 7.15625 -4.234375 C 7.238281 -3.835938 7.234375 -3.445312 7.140625 -3.0625 C 7.046875 -2.675781 6.867188 -2.316406 6.609375 -1.984375 C 6.347656 -1.648438 6.003906 -1.359375 5.578125 -1.109375 C 5.160156 -0.859375 4.664062 -0.679688 4.09375 -0.578125 Z M 4.09375 -0.578125 "/></g></g></g></svg>